# xmcd CD database file
#
# Track frame offsets:
#	150
#	19736
#	35538
#	54179
#	71257
#	82142
#	98743
#	119599
#	131333
#	152515
#	177081
#	197884
#
# Disc length: 2914 seconds
#
# Revision: 0
# Processed by: cddbd v1.5.2PL0 Copyright (c) Steve Scherf et al.
# Submitted via: CDex 1.70beta2
#
DISCID=960b600c
DTITLE=Rosenstolz - Herz (2004)
DYEAR=2004
DGENRE=Mondän-Pop
TTITLE0=Willkommen
TTITLE1=Liebe ist alles
TTITLE2=Ausgesperrt
TTITLE3=Eine Frage des Lichts
TTITLE4=Das gelbe Monster
TTITLE5=Die Liebe ist tot
TTITLE6=Ich will mich verlieben
TTITLE7=In den Sand gesetzt
TTITLE8=Ich komm an dir nicht weiter
TTITLE9=Das Beste im Leben
TTITLE10=Gib mir mehr Himmel
TTITLE11=Augenblick (Dezember)
EXTD=YEAR: 2004
EXTT0=
EXTT1=
EXTT2=
EXTT3=
EXTT4=
EXTT5=
EXTT6=
EXTT7=
EXTT8=
EXTT9=
EXTT10=
EXTT11=
PLAYORDER=
